<mxfile host="app.diagrams.net" modified="2020-10-21T12:08:58.670Z" agent="5.0 (Windows NT 10.0; Win64; x64) AppleWebKit/537.36 (KHTML, like Gecko) Chrome/86.0.4240.111 Safari/537.36" etag="1X8QbhRwAd49jd0PCRNe" version="13.8.1" type="github">
  <diagram id="kdbvxzHxcspiHncA5dtV" name="Page-1">
    <mxGraphModel dx="748" dy="426" grid="1" gridSize="10" guides="1" tooltips="1" connect="1" arrows="1" fold="1" page="1" pageScale="1" pageWidth="827" pageHeight="1169" math="0" shadow="0">
      <root>
        <mxCell id="0" />
        <mxCell id="1" parent="0" />
        <mxCell id="ZQ9a8AEzVLyqdegR4RIP-1" value="Человек" style="shape=umlActor;verticalLabelPosition=bottom;verticalAlign=top;html=1;outlineConnect=0;" parent="1" vertex="1">
          <mxGeometry x="30" y="40" width="30" height="60" as="geometry" />
        </mxCell>
        <mxCell id="ZQ9a8AEzVLyqdegR4RIP-3" value="" style="endArrow=classic;html=1;exitX=0.5;exitY=0.5;exitDx=0;exitDy=0;exitPerimeter=0;" parent="1" source="ZQ9a8AEzVLyqdegR4RIP-1" target="ZQ9a8AEzVLyqdegR4RIP-4" edge="1">
          <mxGeometry width="50" height="50" relative="1" as="geometry">
            <mxPoint x="390" y="110" as="sourcePoint" />
            <mxPoint x="180" y="70" as="targetPoint" />
          </mxGeometry>
        </mxCell>
        <mxCell id="ZQ9a8AEzVLyqdegR4RIP-4" value="Зарегистрироваться" style="ellipse;whiteSpace=wrap;html=1;" parent="1" vertex="1">
          <mxGeometry x="140" y="30" width="160" height="80" as="geometry" />
        </mxCell>
        <mxCell id="ZQ9a8AEzVLyqdegR4RIP-5" value="Пациент" style="shape=umlActor;verticalLabelPosition=bottom;verticalAlign=top;html=1;outlineConnect=0;" parent="1" vertex="1">
          <mxGeometry x="30" y="270" width="30" height="60" as="geometry" />
        </mxCell>
        <mxCell id="ZQ9a8AEzVLyqdegR4RIP-6" value="" style="endArrow=classic;html=1;exitX=0.5;exitY=0.5;exitDx=0;exitDy=0;exitPerimeter=0;entryX=0;entryY=0.5;entryDx=0;entryDy=0;" parent="1" source="ZQ9a8AEzVLyqdegR4RIP-5" target="ZQ9a8AEzVLyqdegR4RIP-7" edge="1">
          <mxGeometry width="50" height="50" relative="1" as="geometry">
            <mxPoint x="90" y="320" as="sourcePoint" />
            <mxPoint x="250" y="298" as="targetPoint" />
          </mxGeometry>
        </mxCell>
        <mxCell id="ZQ9a8AEzVLyqdegR4RIP-7" value="Вход в систему от имени пациента" style="ellipse;whiteSpace=wrap;html=1;" parent="1" vertex="1">
          <mxGeometry x="100" y="230" width="120" height="80" as="geometry" />
        </mxCell>
        <mxCell id="ZQ9a8AEzVLyqdegR4RIP-9" value="" style="endArrow=classic;dashed=1;html=1;exitX=1;exitY=0.5;exitDx=0;exitDy=0;endFill=1;" parent="1" source="ZQ9a8AEzVLyqdegR4RIP-7" target="ZQ9a8AEzVLyqdegR4RIP-10" edge="1">
          <mxGeometry width="50" height="50" relative="1" as="geometry">
            <mxPoint x="390" y="370" as="sourcePoint" />
            <mxPoint x="300" y="250" as="targetPoint" />
          </mxGeometry>
        </mxCell>
        <mxCell id="ZQ9a8AEzVLyqdegR4RIP-10" value="Просмотр расписания врача-специалиста" style="ellipse;whiteSpace=wrap;html=1;" parent="1" vertex="1">
          <mxGeometry x="244" y="150" width="120" height="80" as="geometry" />
        </mxCell>
        <mxCell id="ZQ9a8AEzVLyqdegR4RIP-13" value="Запись на прием" style="ellipse;whiteSpace=wrap;html=1;" parent="1" vertex="1">
          <mxGeometry x="420" y="120" width="120" height="80" as="geometry" />
        </mxCell>
        <mxCell id="ZQ9a8AEzVLyqdegR4RIP-14" value="Просмотр сведений о враче&lt;br&gt;" style="ellipse;whiteSpace=wrap;html=1;" parent="1" vertex="1">
          <mxGeometry x="260" y="320" width="140" height="80" as="geometry" />
        </mxCell>
        <mxCell id="ZQ9a8AEzVLyqdegR4RIP-15" value="" style="endArrow=classic;dashed=1;html=1;entryX=0.5;entryY=1;entryDx=0;entryDy=0;endFill=1;" parent="1" source="ZQ9a8AEzVLyqdegR4RIP-14" target="ZQ9a8AEzVLyqdegR4RIP-7" edge="1">
          <mxGeometry width="50" height="50" relative="1" as="geometry">
            <mxPoint x="390" y="520" as="sourcePoint" />
            <mxPoint x="440" y="470" as="targetPoint" />
          </mxGeometry>
        </mxCell>
        <mxCell id="ZQ9a8AEzVLyqdegR4RIP-17" value="Повторная запись на прием к врачу" style="ellipse;whiteSpace=wrap;html=1;" parent="1" vertex="1">
          <mxGeometry x="620" y="90" width="150" height="80" as="geometry" />
        </mxCell>
        <mxCell id="ZQ9a8AEzVLyqdegR4RIP-18" value="Связь с администратором по техническим вопросам" style="ellipse;whiteSpace=wrap;html=1;" parent="1" vertex="1">
          <mxGeometry x="414" y="220" width="170" height="80" as="geometry" />
        </mxCell>
        <mxCell id="ZQ9a8AEzVLyqdegR4RIP-19" value="" style="endArrow=none;dashed=1;html=1;exitX=1;exitY=1;exitDx=0;exitDy=0;entryX=0;entryY=0;entryDx=0;entryDy=0;startArrow=classic;startFill=1;" parent="1" source="ZQ9a8AEzVLyqdegR4RIP-7" target="ZQ9a8AEzVLyqdegR4RIP-18" edge="1">
          <mxGeometry width="50" height="50" relative="1" as="geometry">
            <mxPoint x="390" y="420" as="sourcePoint" />
            <mxPoint x="440" y="370" as="targetPoint" />
          </mxGeometry>
        </mxCell>
        <mxCell id="ZQ9a8AEzVLyqdegR4RIP-20" value="Врач-специалист" style="shape=umlActor;verticalLabelPosition=bottom;verticalAlign=top;html=1;outlineConnect=0;" parent="1" vertex="1">
          <mxGeometry x="40" y="540" width="30" height="60" as="geometry" />
        </mxCell>
        <mxCell id="ZQ9a8AEzVLyqdegR4RIP-22" value="Вход в систему от имени врача" style="ellipse;whiteSpace=wrap;html=1;" parent="1" vertex="1">
          <mxGeometry x="100" y="520" width="120" height="80" as="geometry" />
        </mxCell>
        <mxCell id="ZQ9a8AEzVLyqdegR4RIP-23" value="" style="endArrow=classic;dashed=1;html=1;exitX=1;exitY=0.5;exitDx=0;exitDy=0;endFill=1;" parent="1" source="ZQ9a8AEzVLyqdegR4RIP-22" target="ZQ9a8AEzVLyqdegR4RIP-24" edge="1">
          <mxGeometry width="50" height="50" relative="1" as="geometry">
            <mxPoint x="390" y="670" as="sourcePoint" />
            <mxPoint x="370" y="630" as="targetPoint" />
          </mxGeometry>
        </mxCell>
        <mxCell id="ZQ9a8AEzVLyqdegR4RIP-24" value="Просмотр личной информации" style="ellipse;whiteSpace=wrap;html=1;" parent="1" vertex="1">
          <mxGeometry x="294" y="460" width="120" height="80" as="geometry" />
        </mxCell>
        <mxCell id="ZQ9a8AEzVLyqdegR4RIP-26" value="" style="endArrow=classic;dashed=1;html=1;exitX=0.5;exitY=1;exitDx=0;exitDy=0;endFill=1;startArrow=none;startFill=0;" parent="1" source="ZQ9a8AEzVLyqdegR4RIP-22" target="ZQ9a8AEzVLyqdegR4RIP-27" edge="1">
          <mxGeometry width="50" height="50" relative="1" as="geometry">
            <mxPoint x="390" y="750" as="sourcePoint" />
            <mxPoint x="240" y="790" as="targetPoint" />
          </mxGeometry>
        </mxCell>
        <mxCell id="ZQ9a8AEzVLyqdegR4RIP-27" value="Просмотр карты пациента" style="ellipse;whiteSpace=wrap;html=1;" parent="1" vertex="1">
          <mxGeometry x="230" y="640" width="120" height="80" as="geometry" />
        </mxCell>
        <mxCell id="ZQ9a8AEzVLyqdegR4RIP-30" value="Внесение данных в карту пациента" style="ellipse;whiteSpace=wrap;html=1;" parent="1" vertex="1">
          <mxGeometry x="400" y="640" width="120" height="80" as="geometry" />
        </mxCell>
        <mxCell id="ZQ9a8AEzVLyqdegR4RIP-32" value="Просмотр личного расписания" style="ellipse;whiteSpace=wrap;html=1;" parent="1" vertex="1">
          <mxGeometry x="330" y="550" width="120" height="80" as="geometry" />
        </mxCell>
        <mxCell id="ZQ9a8AEzVLyqdegR4RIP-35" value="Изменение личного расписания" style="ellipse;whiteSpace=wrap;html=1;" parent="1" vertex="1">
          <mxGeometry x="520" y="470" width="120" height="80" as="geometry" />
        </mxCell>
        <mxCell id="p5N6be4la8yaBBw_UBMg-2" value="Запись пациента на повторный прием" style="ellipse;whiteSpace=wrap;html=1;" vertex="1" parent="1">
          <mxGeometry x="550" y="570" width="120" height="80" as="geometry" />
        </mxCell>
        <mxCell id="p5N6be4la8yaBBw_UBMg-3" value="Администратор" style="shape=umlActor;verticalLabelPosition=bottom;verticalAlign=top;html=1;outlineConnect=0;" vertex="1" parent="1">
          <mxGeometry x="40" y="860" width="30" height="60" as="geometry" />
        </mxCell>
        <mxCell id="p5N6be4la8yaBBw_UBMg-11" value="Вход в систему от имени администратора" style="ellipse;whiteSpace=wrap;html=1;" vertex="1" parent="1">
          <mxGeometry x="124" y="800" width="120" height="80" as="geometry" />
        </mxCell>
        <mxCell id="p5N6be4la8yaBBw_UBMg-14" value="" style="endArrow=classic;html=1;exitX=0.5;exitY=0.5;exitDx=0;exitDy=0;exitPerimeter=0;entryX=0;entryY=0.5;entryDx=0;entryDy=0;" edge="1" parent="1" source="ZQ9a8AEzVLyqdegR4RIP-20" target="ZQ9a8AEzVLyqdegR4RIP-22">
          <mxGeometry width="50" height="50" relative="1" as="geometry">
            <mxPoint x="370" y="600" as="sourcePoint" />
            <mxPoint x="420" y="550" as="targetPoint" />
          </mxGeometry>
        </mxCell>
        <mxCell id="p5N6be4la8yaBBw_UBMg-15" value="" style="endArrow=classic;html=1;entryX=0;entryY=0.5;entryDx=0;entryDy=0;exitX=1;exitY=0.5;exitDx=0;exitDy=0;" edge="1" parent="1" source="ZQ9a8AEzVLyqdegR4RIP-10" target="ZQ9a8AEzVLyqdegR4RIP-13">
          <mxGeometry width="50" height="50" relative="1" as="geometry">
            <mxPoint x="370" y="300" as="sourcePoint" />
            <mxPoint x="420" y="250" as="targetPoint" />
          </mxGeometry>
        </mxCell>
        <mxCell id="p5N6be4la8yaBBw_UBMg-16" value="" style="endArrow=classic;html=1;entryX=0;entryY=0.5;entryDx=0;entryDy=0;exitX=1;exitY=0.5;exitDx=0;exitDy=0;" edge="1" parent="1" source="ZQ9a8AEzVLyqdegR4RIP-13" target="ZQ9a8AEzVLyqdegR4RIP-17">
          <mxGeometry width="50" height="50" relative="1" as="geometry">
            <mxPoint x="370" y="300" as="sourcePoint" />
            <mxPoint x="420" y="250" as="targetPoint" />
          </mxGeometry>
        </mxCell>
        <mxCell id="p5N6be4la8yaBBw_UBMg-18" value="" style="endArrow=classic;html=1;entryX=0.019;entryY=0.746;entryDx=0;entryDy=0;entryPerimeter=0;exitX=1;exitY=0.5;exitDx=0;exitDy=0;" edge="1" parent="1" source="ZQ9a8AEzVLyqdegR4RIP-32" target="ZQ9a8AEzVLyqdegR4RIP-35">
          <mxGeometry width="50" height="50" relative="1" as="geometry">
            <mxPoint x="370" y="680" as="sourcePoint" />
            <mxPoint x="420" y="630" as="targetPoint" />
          </mxGeometry>
        </mxCell>
        <mxCell id="p5N6be4la8yaBBw_UBMg-19" value="" style="endArrow=classic;dashed=1;html=1;exitX=0.923;exitY=0.81;exitDx=0;exitDy=0;exitPerimeter=0;entryX=0;entryY=0.5;entryDx=0;entryDy=0;endFill=1;" edge="1" parent="1" source="ZQ9a8AEzVLyqdegR4RIP-22" target="ZQ9a8AEzVLyqdegR4RIP-32">
          <mxGeometry width="50" height="50" relative="1" as="geometry">
            <mxPoint x="370" y="750" as="sourcePoint" />
            <mxPoint x="420" y="700" as="targetPoint" />
          </mxGeometry>
        </mxCell>
        <mxCell id="p5N6be4la8yaBBw_UBMg-20" value="" style="endArrow=classic;html=1;entryX=0;entryY=0.5;entryDx=0;entryDy=0;" edge="1" parent="1" source="ZQ9a8AEzVLyqdegR4RIP-27" target="ZQ9a8AEzVLyqdegR4RIP-30">
          <mxGeometry width="50" height="50" relative="1" as="geometry">
            <mxPoint x="370" y="680" as="sourcePoint" />
            <mxPoint x="420" y="630" as="targetPoint" />
          </mxGeometry>
        </mxCell>
        <mxCell id="p5N6be4la8yaBBw_UBMg-21" value="" style="endArrow=classic;html=1;entryX=0;entryY=1;entryDx=0;entryDy=0;exitX=1;exitY=0.5;exitDx=0;exitDy=0;" edge="1" parent="1" source="ZQ9a8AEzVLyqdegR4RIP-30" target="p5N6be4la8yaBBw_UBMg-2">
          <mxGeometry width="50" height="50" relative="1" as="geometry">
            <mxPoint x="370" y="680" as="sourcePoint" />
            <mxPoint x="420" y="630" as="targetPoint" />
          </mxGeometry>
        </mxCell>
        <mxCell id="p5N6be4la8yaBBw_UBMg-23" value="" style="endArrow=classic;html=1;exitX=0.5;exitY=0.5;exitDx=0;exitDy=0;exitPerimeter=0;entryX=0;entryY=0.5;entryDx=0;entryDy=0;" edge="1" parent="1" source="p5N6be4la8yaBBw_UBMg-3" target="p5N6be4la8yaBBw_UBMg-11">
          <mxGeometry width="50" height="50" relative="1" as="geometry">
            <mxPoint x="370" y="910" as="sourcePoint" />
            <mxPoint x="420" y="860" as="targetPoint" />
          </mxGeometry>
        </mxCell>
        <mxCell id="p5N6be4la8yaBBw_UBMg-24" value="" style="endArrow=classic;html=1;exitX=1;exitY=0.5;exitDx=0;exitDy=0;" edge="1" parent="1" source="p5N6be4la8yaBBw_UBMg-11" target="p5N6be4la8yaBBw_UBMg-25">
          <mxGeometry width="50" height="50" relative="1" as="geometry">
            <mxPoint x="370" y="910" as="sourcePoint" />
            <mxPoint x="380" y="800" as="targetPoint" />
          </mxGeometry>
        </mxCell>
        <mxCell id="p5N6be4la8yaBBw_UBMg-25" value="Просмотр данных и расписания врача-специалиста" style="ellipse;whiteSpace=wrap;html=1;" vertex="1" parent="1">
          <mxGeometry x="280" y="770" width="120" height="80" as="geometry" />
        </mxCell>
        <mxCell id="p5N6be4la8yaBBw_UBMg-26" value="" style="endArrow=classic;html=1;exitX=1;exitY=0.5;exitDx=0;exitDy=0;entryX=0;entryY=0.5;entryDx=0;entryDy=0;" edge="1" parent="1" source="p5N6be4la8yaBBw_UBMg-25" target="p5N6be4la8yaBBw_UBMg-28">
          <mxGeometry width="50" height="50" relative="1" as="geometry">
            <mxPoint x="370" y="890" as="sourcePoint" />
            <mxPoint x="510" y="800" as="targetPoint" />
          </mxGeometry>
        </mxCell>
        <mxCell id="p5N6be4la8yaBBw_UBMg-28" value="Изменение расписания врача-специалиста" style="ellipse;whiteSpace=wrap;html=1;" vertex="1" parent="1">
          <mxGeometry x="439" y="750" width="120" height="80" as="geometry" />
        </mxCell>
        <mxCell id="p5N6be4la8yaBBw_UBMg-30" value="" style="endArrow=none;dashed=1;html=1;exitX=0.567;exitY=1.023;exitDx=0;exitDy=0;exitPerimeter=0;startArrow=classic;startFill=1;" edge="1" parent="1" source="p5N6be4la8yaBBw_UBMg-11" target="p5N6be4la8yaBBw_UBMg-31">
          <mxGeometry width="50" height="50" relative="1" as="geometry">
            <mxPoint x="370" y="890" as="sourcePoint" />
            <mxPoint x="280" y="950" as="targetPoint" />
          </mxGeometry>
        </mxCell>
        <mxCell id="p5N6be4la8yaBBw_UBMg-31" value="&lt;span style=&quot;font-size: 11.0pt ; line-height: 107% ; font-family: &amp;#34;calibri&amp;#34; , sans-serif&quot;&gt;Помощь&lt;br&gt;пациенту и врачу по техническим вопросам&lt;/span&gt;" style="ellipse;whiteSpace=wrap;html=1;" vertex="1" parent="1">
          <mxGeometry x="254" y="930" width="160" height="100" as="geometry" />
        </mxCell>
        <mxCell id="p5N6be4la8yaBBw_UBMg-32" value="Изменение личных данных врача специалиста" style="ellipse;whiteSpace=wrap;html=1;" vertex="1" parent="1">
          <mxGeometry x="450" y="860" width="120" height="80" as="geometry" />
        </mxCell>
        <mxCell id="p5N6be4la8yaBBw_UBMg-33" value="" style="endArrow=classic;html=1;exitX=1;exitY=1;exitDx=0;exitDy=0;" edge="1" parent="1" source="p5N6be4la8yaBBw_UBMg-25" target="p5N6be4la8yaBBw_UBMg-32">
          <mxGeometry width="50" height="50" relative="1" as="geometry">
            <mxPoint x="370" y="880" as="sourcePoint" />
            <mxPoint x="420" y="830" as="targetPoint" />
          </mxGeometry>
        </mxCell>
        <mxCell id="p5N6be4la8yaBBw_UBMg-35" value="" style="endArrow=none;dashed=1;html=1;exitX=0.274;exitY=0.985;exitDx=0;exitDy=0;exitPerimeter=0;startArrow=classic;startFill=1;entryX=0.5;entryY=0;entryDx=0;entryDy=0;" edge="1" parent="1" source="p5N6be4la8yaBBw_UBMg-11" target="p5N6be4la8yaBBw_UBMg-36">
          <mxGeometry width="50" height="50" relative="1" as="geometry">
            <mxPoint x="370" y="940" as="sourcePoint" />
            <mxPoint x="157" y="980" as="targetPoint" />
          </mxGeometry>
        </mxCell>
        <mxCell id="p5N6be4la8yaBBw_UBMg-36" value="Поддержание стабильной работы системы" style="ellipse;whiteSpace=wrap;html=1;" vertex="1" parent="1">
          <mxGeometry x="80" y="990" width="120" height="80" as="geometry" />
        </mxCell>
      </root>
    </mxGraphModel>
  </diagram>
</mxfile>
